<svg display="none" xmlns="http://www.w3.org/2000/svg">
   <symbol id="Facebook" viewBox="0 0 7 14"> 
        <g>
            <path d="M4.34375 14V6.99918H6.27628L6.53239 4.58666H4.34375L4.34703 3.37917C4.34703 2.74995 4.40682 2.41279 5.31056 2.41279H6.51871V0H4.5859C2.26429 0 1.44714 1.17033 1.44714 3.13846V4.58693H0V6.99945H1.44714V14H4.34375Z" />
        </g>
    </symbol>

    <symbol id="Twitter" viewBox="0 0 15 12">
        <g>
            <path d="M14.25 2.06641C13.875 2.62891 13.418 3.10937 12.8789 3.50781V3.85938C12.8789 4.79688 12.7031 5.72265 12.3516 6.63672C12 7.55079 11.502 8.39453 10.8574 9.16797C10.2129 9.94141 9.38086 10.5625 8.36133 11.0312C7.34179 11.5 6.22266 11.7344 5.00391 11.7344C3.45702 11.7344 2.03907 11.3242 0.75 10.5039C0.960939 10.5273 1.18359 10.5391 1.41797 10.5391C2.70704 10.5391 3.85546 10.1406 4.86328 9.34375C4.2539 9.34375 3.71485 9.16211 3.24609 8.79883C2.77734 8.43554 2.44922 7.97266 2.26172 7.41016C2.42578 7.45703 2.60156 7.48047 2.78906 7.48047C3.04688 7.48047 3.29297 7.44531 3.52734 7.375C2.87109 7.23437 2.33203 6.91211 1.91016 6.4082C1.48828 5.90429 1.27734 5.32422 1.27734 4.66797V4.63281C1.67578 4.84375 2.09765 4.96094 2.54297 4.98438C1.72265 4.42187 1.3125 3.64844 1.3125 2.66406C1.3125 2.17187 1.4414 1.70313 1.69922 1.25781C3.17579 3.08595 5.07421 4.05859 7.39453 4.17578C7.34766 3.96484 7.32422 3.75391 7.32422 3.54297C7.32422 2.76953 7.59375 2.11328 8.13281 1.57422C8.67188 1.03515 9.32812 0.765625 10.1016 0.765625C10.8984 0.765625 11.5664 1.05859 12.1055 1.64453C12.7383 1.52734 13.3242 1.30469 13.8633 0.976562C13.6523 1.63282 13.2539 2.13672 12.668 2.48828C13.207 2.41797 13.7344 2.27734 14.25 2.06641Z" />
        </g>
    </symbol>

    <symbol id="Google" viewBox="0 0 12 12">
        <g>
            <path d="M5.96018 4.81188V7.18812C5.96018 7.18812 8.25006 7.18503 9.18245 7.18503C8.67754 8.72548 7.89245 9.56436 5.96018 9.56436C4.00471 9.56436 2.47849 7.96853 2.47849 6C2.47849 4.03147 4.00471 2.43564 5.96018 2.43564C6.99406 2.43564 7.66178 2.80147 8.27426 3.31135C8.76453 2.8178 8.72357 2.74747 9.9709 1.56166C8.91206 0.591446 7.50475 0 5.96018 0C2.66845 0 0 2.68628 0 6C0 9.31366 2.66845 12 5.96018 12C10.8804 12 12.083 7.68713 11.6843 4.81188H5.96018Z" />
        </g>
    </symbol>
</svg>